<svg xmlns="http://www.w3.org/2000/svg" xmlns:xlink="http://www.w3.org/1999/xlink" width="1080" zoomAndPan="magnify" viewBox="0 0 810 809.999993" height="1080" preserveAspectRatio="xMidYMid meet" version="1.0"><defs><g/></defs><g fill="#22c55e" fill-opacity="1"><g transform="translate(12.723294, 567.508622)"><g><path d="M 38.109375 -404.0625 C 45.367188 -366.558594 54.4375 -306.675781 54.4375 -164.527344 C 54.4375 -108.878906 51.414062 -65.328125 45.367188 -24.800781 C 33.269531 -21.777344 29.640625 -20.566406 15.121094 -15.726562 L 19.355469 7.257812 C 56.253906 2.417969 77.425781 0 113.113281 0 C 150.011719 0 182.070312 3.023438 223.203125 9.074219 L 224.410156 -13.914062 C 212.3125 -19.355469 209.289062 -20.566406 195.375 -23.589844 C 183.882812 -113.113281 179.046875 -171.785156 179.046875 -223.203125 C 179.046875 -246.792969 179.046875 -255.863281 189.933594 -404.0625 C 203.84375 -406.480469 206.871094 -407.691406 219.570312 -411.320312 L 218.96875 -435.515625 C 186.910156 -427.652344 157.269531 -424.023438 113.113281 -424.023438 C 80.449219 -424.023438 52.019531 -426.441406 12.703125 -430.675781 L 12.703125 -407.085938 C 23.589844 -405.269531 26.613281 -405.269531 38.109375 -404.0625 Z M 38.109375 -404.0625 "/></g></g></g><g fill="#22c55e" fill-opacity="1"><g transform="translate(246.207263, 567.508622)"><g><path d="M 1.210938 -353.25 C 13.308594 -355.671875 16.332031 -356.273438 29.035156 -358.089844 C 81.054688 -295.183594 239.53125 -12.097656 258.285156 25.40625 L 286.714844 22.984375 C 312.722656 -29.035156 424.625 -226.832031 506.890625 -346.597656 C 523.222656 -340.546875 526.851562 -339.945312 540.765625 -336.917969 L 554.070312 -358.089844 C 471.808594 -385.914062 418.578125 -411.925781 350.226562 -456.082031 L 336.917969 -433.09375 C 345.386719 -425.835938 349.015625 -424.023438 361.113281 -417.367188 C 340.546875 -353.25 319.980469 -301.230469 277.035156 -214.734375 C 228.644531 -290.949219 204.449219 -345.992188 188.117188 -411.925781 C 201.425781 -417.972656 204.449219 -419.789062 214.734375 -426.441406 L 203.238281 -451.847656 C 115.53125 -407.085938 49.601562 -388.335938 -2.417969 -382.285156 Z M 1.210938 -353.25 "/></g></g></g></svg>